<svg xmlns="http://www.w3.org/2000/svg" viewBox="0 0 64 64" id="book"><path fill="#ff3051" d="M16,3V56H10V8a5,5,0,0,1,5-5Z"></path><rect width="38" height="48" x="16" y="3" fill="#ff9478"></rect><rect width="37" height="4" x="16" y="54" fill="#e0e0e2"></rect><path fill="#e0e0e2" d="M39,37v2a4,4,0,0,1-8,0V37Z"></path><path fill="#ff6243" d="M16,54v4H54v3H15a5,5,0,0,1,0-10H54v3Z"></path><circle cx="35" cy="24" r="10" fill="#ffda44"></circle><path fill="#898890" d="M39.34,33a3.539,3.539,0,0,1-.34.16V37H31V33.16a3.539,3.539,0,0,1-.34-.16Z"></path><path d="M54,2H15A6.006,6.006,0,0,0,9,8V56a6.006,6.006,0,0,0,6,6H54a1,1,0,0,0,1-1V58a1,1,0,0,0-1-1V55a1,1,0,0,0,1-1V3A1,1,0,0,0,54,2ZM53,53H17V52H53ZM15,4V50a5.969,5.969,0,0,0-4,1.54V8A4,4,0,0,1,15,4ZM11,56a4,4,0,0,1,4-4v8A4,4,0,0,1,11,56Zm42,4H17V59H53Zm-1-3H17V55H52Zm1-7H17V4H53V50Z"></path><rect width="2" height="2" x="34" y="9"></rect><rect width="2" height="2" x="27" y="10.876" transform="rotate(-30.002 28 11.875)"></rect><rect width="2" height="2" x="21.876" y="16" transform="rotate(-59.998 22.876 17)"></rect><rect width="2" height="2" x="20" y="23"></rect><rect width="2" height="2" x="21.876" y="30" transform="rotate(-29.995 22.876 31)"></rect><rect width="2" height="2" x="46.124" y="30" transform="rotate(-59.998 47.124 31)"></rect><rect width="2" height="2" x="48" y="23"></rect><rect width="2" height="2" x="46.124" y="16" transform="rotate(-29.995 47.124 17)"></rect><rect width="2" height="2" x="41" y="10.876" transform="rotate(-60.005 42 11.876)"></rect><path d="M42.335,15.8a11,11,0,0,0-18.228,6.641A10.94,10.94,0,0,0,30,33.8V39a5,5,0,0,0,10,0V33.794A11,11,0,0,0,42.335,15.8ZM35,42a3,3,0,0,1-3-3V38h6v1A3,3,0,0,1,35,42Zm3-6H32V34h6ZM32,25H30V22h2Zm4,7H34V27h2Zm3.066,0H38V27h3a1,1,0,0,0,1-1V21a1,1,0,0,0-1-1H37a1,1,0,0,0-1,1v4H34V21a1,1,0,0,0-1-1H29a1,1,0,0,0-1,1v5a1,1,0,0,0,1,1h3v5H30.9a8.994,8.994,0,0,1,3.074-16.942A9.415,9.415,0,0,1,35.012,15,8.9,8.9,0,0,1,41,17.292,8.973,8.973,0,0,1,39.066,32ZM38,25V22h2v3Z"></path></svg>