<svg xmlns="http://www.w3.org/2000/svg" data-name="Layer 1" viewBox="0 0 512 512" id="story-book"><path fill="#00efd1" d="M278,202.36h79.46L279.07,69.14,278,72.05,230.12,202.36Zm0,37.52H166.16v25.88a39.825,39.825,0,0,0,5.78,20.73l-.06.18c9.89,3.47,15.15,9.13,32.33,9.13,24.76,0,24.76-11.76,49.52-11.76s24.77,11.76,49.53,11.76,24.76-11.76,49.53-11.76c15.99,0,21.65,4.91,30.33,8.38l.08-.21a39.851,39.851,0,0,0,10-26.45V239.88ZM439.97,24.75V397.68H127.11V24.75Z"></path><path fill="#00acea" d="M416.08,397.68v89.57H116.82a44.794,44.794,0,0,1-44.79-44.79c0-.62.01-1.23.04-1.84a44.786,44.786,0,0,1,44.75-42.94H416.08Z"></path><path fill="#fedb41" d="M278,239.88H393.2v25.88a39.851,39.851,0,0,1-10,26.45l-.08.21c-8.68-3.47-14.34-8.38-30.33-8.38-24.77,0-24.77,11.76-49.53,11.76s-24.76-11.76-49.53-11.76-24.76,11.76-49.52,11.76c-17.18,0-22.44-5.66-32.33-9.13l.06-.18a39.825,39.825,0,0,1-5.78-20.73V239.88Z"></path><polygon fill="#fedb41" points="279.07 69.14 357.46 202.36 278 202.36 278 72.05 279.07 69.14"></polygon><polygon fill="#f4b844" points="278 72.05 278 202.36 230.12 202.36 278 72.05"></polygon><path fill="#fedb41" d="M127.11,397.67v.01H116.82a44.786,44.786,0,0,0-44.75,42.94h-.04V69.54a44.786,44.786,0,0,1,44.79-44.79h10.29Z"></path><path fill="#083863" d="M439.97,17H116.82A52.663,52.663,0,0,0,64,69.54V440.62c0,.172.021.341.031.51-.011.441-.008.883-.008,1.33A52.586,52.586,0,0,0,116.82,495H416.08a7.723,7.723,0,0,0,7.92-7.75V406h15.97a8.3,8.3,0,0,0,8.03-8.32V24.75A7.817,7.817,0,0,0,439.97,17ZM80,69.54A36.645,36.645,0,0,1,116.82,33H119V390h-2.18A53.379,53.379,0,0,0,80,404.513ZM408,479H116.82a36.584,36.584,0,0,1-36.79-36.6c0-.486.007-.773.033-1.327A36.5,36.5,0,0,1,116.82,406H408Zm24-89H135V33H432Z"></path><path fill="#083863" d="M154.69,315.57c10.577,0,15.559,2.366,21.328,5.106,6.566,3.119,14.008,6.654,28.192,6.654s21.626-3.535,28.192-6.654c5.769-2.74,10.751-5.106,21.328-5.106s15.568,2.367,21.338,5.107c6.568,3.119,14.01,6.653,28.192,6.653s21.624-3.534,28.19-6.652c5.772-2.741,10.756-5.108,21.34-5.108s15.559,2.366,21.327,5.106c6.567,3.119,14.009,6.654,28.193,6.654a8,8,0,0,0,0-16c-10.577,0-15.559-2.366-21.328-5.106-6.566-3.119-14.008-6.654-28.192-6.654s-21.635,3.535-28.2,6.654c-5.77,2.74-10.752,5.106-21.327,5.106s-15.559-2.366-21.327-5.106c-6.569-3.119-14.013-6.654-28.2-6.654s-21.626,3.535-28.193,6.654c-5.768,2.74-10.751,5.106-21.327,5.106s-15.559-2.366-21.327-5.106c-6.567-3.119-14.009-6.654-28.193-6.654a8,8,0,0,0,0,16Z"></path><path fill="#083863" d="M154.69 292.04a42.351 42.351 0 0 1 14.541 2.179 68.75 68.75 0 0 1 6.783 2.927c6.568 3.119 14.012 6.654 28.2 6.654s21.626-3.535 28.191-6.654c5.77-2.74 10.752-5.106 21.329-5.106s15.568 2.367 21.339 5.107c6.567 3.119 14.009 6.653 28.191 6.653s21.624-3.534 28.19-6.653c5.772-2.74 10.756-5.107 21.34-5.107 10.565 0 15.545 2.364 21.311 5.1 1.892.9 3.85 1.828 6.053 2.709a57.2 57.2 0 0 0 22.156 3.95 8 8 0 0 0 0-16 57.554 57.554 0 0 1-6.411-.336 47.839 47.839 0 0 0 5.1-21.7V239.88a7.73 7.73 0 0 0-7.8-7.88H286V210h71.46a7.779 7.779 0 0 0 6.894-11.787L285.965 65.038a7.985 7.985 0 0 0-7.611-3.888 8.356 8.356 0 0 0-7.038 5.217L270 69.288v0l.23.709H270v.627L222.611 199.6a7.638 7.638 0 0 0 .949 7.158A7.837 7.837 0 0 0 230.12 210H270v22H166.16a8.037 8.037 0 0 0-8.16 7.88v25.88a48.212 48.212 0 0 0 1.239 10.423c-1.5-.089-2.989-.143-4.589-.143a8 8 0 0 0 .04 16zM286 194V96.692L343.471 194zm-44.418 0L270 117.018V194zM174 248H385v17.76a31.851 31.851 0 0 1-4.613 16.7c-6.45-3.058-13.815-6.422-27.647-6.422-14.189 0-21.61 3.535-28.178 6.654-5.769 2.74-10.74 5.106-21.315 5.106s-15.552-2.366-21.321-5.106c-6.568-3.119-14.01-6.654-28.2-6.654s-21.624 3.535-28.191 6.654c-5.769 2.74-10.751 5.106-21.327 5.106s-15.562-2.367-21.333-5.107c-1.655-.786-3.443-1.585-5.29-2.356A32.066 32.066 0 0 1 174 265.76zM402.31 334.86c-10.577 0-15.559-2.366-21.328-5.107-6.566-3.118-14.008-6.653-28.192-6.653s-21.635 3.535-28.2 6.654c-5.769 2.74-10.752 5.106-21.327 5.106s-15.559-2.366-21.327-5.106c-6.569-3.119-14.014-6.654-28.2-6.654s-21.626 3.535-28.193 6.654c-5.768 2.74-10.751 5.106-21.327 5.106s-15.559-2.366-21.327-5.107c-6.567-3.118-14.009-6.653-28.193-6.653a8 8 0 0 0 0 16c10.577 0 15.559 2.366 21.328 5.107 6.566 3.118 14.008 6.653 28.192 6.653s21.626-3.535 28.191-6.653c5.77-2.741 10.752-5.107 21.329-5.107s15.568 2.367 21.339 5.108c6.567 3.118 14.009 6.652 28.191 6.652s21.624-3.534 28.19-6.652c5.772-2.741 10.756-5.108 21.34-5.108s15.559 2.366 21.327 5.107c6.567 3.118 14.009 6.653 28.193 6.653a8 8 0 1 0 0-16z"></path></svg>